<?xml version="1.0" encoding="UTF-8"?><svg id="Layer_1" xmlns="http://www.w3.org/2000/svg" viewBox="0 0 429.95 114.94"><defs><style>.cls-1{fill:#fff;}</style></defs><g><path class="cls-1" d="M286.5,25.32c0-4.89,4-8.9,8.78-8.9s8.9,4,8.9,8.9-4,8.78-8.9,8.78-8.78-4-8.78-8.78Z"/><g><path class="cls-1" d="M152.62,25.26h15.57v40.03c.44-.78,4-6.12,6.56-9.45l22.91-30.58h18.13l-25.13,32.91,28.24,39.14h-18.24l-19.57-27.69-12.9,15.79v11.9h-15.57V25.26Z"/><rect class="cls-1" x="287.95" y="41.72" width="14.9" height="55.6"/><path class="cls-1" d="M314.19,25.26h14.9v39.59l19.13-23.13h18.13l-21.68,24.24,25.35,31.36h-17.9l-16.68-21.24-6.34,7.56v13.68h-14.9V25.26Z"/><path class="cls-1" d="M370.46,69.52c0-16.12,13.12-28.91,29.69-28.91s29.8,12.79,29.8,28.91-13.12,28.91-29.8,28.91-29.69-12.79-29.69-28.91Zm44.26,0c0-8.67-6.23-15.12-14.57-15.12s-14.57,6.45-14.57,15.12,6.23,15.12,14.57,15.12,14.57-6.34,14.57-15.12Z"/><path class="cls-1" d="M262.04,41.72v4.47c-3.87-3.14-8.7-5.07-13.66-5.54-8.91-.86-18.07,3.18-23.99,9.79-4.68,5.22-7.27,12.07-7.27,19.08s2.59,13.86,7.27,19.08c5.92,6.61,15.08,10.65,23.99,9.79,4.97-.47,9.8-2.4,13.66-5.54v4.46h14.57V41.72h-14.57Zm-15.24,42.92c-8.34,0-14.57-6.45-14.57-15.12s6.23-15.12,14.57-15.12,14.57,6.45,14.57,15.12-6.22,15.12-14.57,15.12Z"/></g></g><g><path class="cls-1" d="M64.23,1.91l-4.7,24.76c-.11,.56-.51,1.03-1.05,1.21l-26.51,9.27-4.39,1.53c-1.87,.65-3.67,1.42-5.4,2.32-.03,.01-.06,.03-.08,.04-8.13,3.93-15.41,9.91-19.86,17.85L9.09,22.78c.53-2.82,2.54-5.15,5.26-6.1L62.12,.09c1.16-.41,2.34,.6,2.11,1.82Z"/><path class="cls-1" d="M56.63,113.02l4.7-24.76c.11-.56,.51-1.03,1.05-1.21l26.51-9.27,4.39-1.53c1.87-.65,3.67-1.42,5.4-2.32,.03-.01,.06-.03,.08-.04,8.13-3.93,15.41-9.91,19.86-17.85l-6.85,36.11c-.53,2.82-2.54,5.15-5.26,6.1l-47.77,16.59c-1.16,.41-2.34-.6-2.11-1.82Z"/><path class="cls-1" d="M48.38,85.5l-4.76,25.06c-.23,1.22-1.69,1.73-2.63,.91L2.64,78.25c-.84-.73-1.59-1.58-2.07-2.53-.1-.17-.19-.35-.25-.54-.12-.32-.21-.64-.27-.97v-.05c-.01-.08-.02-.17-.03-.26,0-.12-.02-.24-.02-.37,0-.12,0-.23,.01-.34,0-.07,.02-.15,.02-.22,.02-.13,.04-.25,.06-.37,.12-.65,.34-1.31,.53-1.92,2.27-8.19,7.85-14.95,14.6-19.92,4.8-3.35,10.09-5.52,15.56-7.33l-4.21,22.22,21.28,18.33c.43,.37,.63,.95,.53,1.52Z"/><path class="cls-1" d="M72.48,29.44l4.76-25.06c.23-1.22,1.69-1.73,2.63-.91l38.35,33.22c.84,.73,1.59,1.58,2.07,2.53,.1,.17,.19,.35,.25,.54,.12,.32,.21,.64,.27,.97v.05c.01,.08,.02,.17,.03,.26,0,.12,.02,.24,.02,.37,0,.12,0,.23-.01,.34,0,.07-.02,.15-.02,.22-.02,.13-.04,.25-.06,.37-.12,.65-.34,1.31-.53,1.92-2.27,8.19-7.85,14.95-14.6,19.92-4.8,3.35-10.09,5.52-15.56,7.33l4.21-22.22-21.28-18.33c-.43-.37-.63-.95-.53-1.52Z"/></g></svg>